<svg xmlns="http://www.w3.org/2000/svg" xmlns:xlink="http://www.w3.org/1999/xlink" width="24px" height="24px" viewBox="0 0 24 24" version="1.1">
	<g id="surface1">
		<path style=" stroke:none;fill-rule:evenodd;fill:rgb(85,70,255);fill-opacity:1;" d="M 12 24 C 18.628906 24 24 18.628906 24 12 C 24 5.371094 18.628906 0 12 0 C 5.371094 0 0 5.371094 0 12 C 0 18.628906 5.371094 24 12 24 Z M 17.230469 11.660156 L 17.230469 10.386719 L 14.105469 10.386719 L 16.300781 7.0625 L 14.640625 7.0625 L 11.996094 11.070312 L 9.359375 7.0625 L 7.699219 7.0625 L 9.894531 10.386719 L 6.769531 10.386719 L 6.769531 11.667969 L 17.230469 11.667969 Z M 16.265625 17.527344 L 14.042969 14.164062 L 17.230469 14.164062 L 17.230469 12.898438 L 6.769531 12.898438 L 6.769531 14.171875 L 9.957031 14.171875 L 7.734375 17.527344 L 9.386719 17.527344 L 11.996094 13.574219 L 14.605469 17.527344 Z M 16.265625 17.527344 "/>
	</g>
</svg>
